<svg viewBox="0 0 17 17" focusable="false" class="chakra-icon css-13rta2i">
  <path d="M16 15C16 16.1046 15.1046 17 14 17H4C2.89543 17 2 16.1046 2 15V13.5H4V15H14V13.5H16V15Z" fill="currentColor"></path>
  <path d="M2 2C2 0.89543 2.89543 0 4 0L14 0C15.1046 0 16 0.89543 16 2V3.5L14 3.5V2L4 2V3.5L2 3.5V2Z" fill="currentColor"></path>
  <path d="M13.3514 6.63485C13.2409 6.63485 13.1514 6.54531 13.1514 6.43485V5.34088C13.1514 5.23043 13.2409 5.14088 13.3514 5.14088H15.7999C15.9104 5.14088 15.9999 5.23043 15.9999 5.34088V10.5C15.9999 10.6105 16.0894 10.7 16.1999 10.7H16.8C16.9105 10.7 17 10.7895 17 10.9V11.8C17 11.9104 16.9105 12 16.8 12H15.9999H14.1694H13.3514C13.2409 12 13.1514 11.9104 13.1514 11.8V10.9C13.1514 10.7895 13.2409 10.7 13.3514 10.7H13.9694C14.0799 10.7 14.1694 10.6105 14.1694 10.5V6.83485C14.1694 6.72439 14.0799 6.63485 13.9694 6.63485H13.3514Z" fill="currentColor"></path>
  <path d="M10.6669 12C10.6042 12 10.5451 11.9706 10.5073 11.9206L9.64079 10.7737C9.55667 10.6623 9.38726 10.6692 9.31242 10.7869L8.60044 11.9073C8.56374 11.9651 8.50007 12 8.43164 12H7.02527C6.86307 12 6.76833 11.8171 6.86193 11.6846L8.44676 9.44171C8.49706 9.37054 8.49547 9.27498 8.44283 9.20552L6.8307 7.07785C6.7309 6.94613 6.82485 6.75706 6.99011 6.75706H8.46291C8.52539 6.75706 8.58428 6.78627 8.62211 6.836L9.48905 7.97607C9.57321 8.08674 9.74182 8.0799 9.81673 7.96278L10.5289 6.8493C10.5657 6.79183 10.6292 6.75706 10.6974 6.75706H12.0973C12.2608 6.75706 12.3552 6.94263 12.2589 7.07481L10.6549 9.27717C10.6029 9.34851 10.6039 9.44548 10.6572 9.51579L12.2984 11.6792C12.3983 11.8109 12.3043 12 12.139 12H10.6669Z" fill="currentColor"></path>
  <path d="M0 8.47653C0 7.39912 0.226237 6.55034 0.678711 5.93021C1.13804 5.31007 1.87502 5 2.88966 5C3.9043 5 4.63786 5.31007 5.09033 5.93021C5.54966 6.55034 5.77933 7.39912 5.77933 8.47653C5.77933 9.56646 5.54966 10.4215 5.09033 11.0416C4.63786 11.6618 3.9043 11.9718 2.88966 11.9718C1.87502 11.9718 1.13804 11.6618 0.678711 11.0416C0.226237 10.4215 0 9.56646 0 8.47653ZM4.0517 8.47653C4.0517 7.84386 3.97629 7.3584 3.82546 7.02014C3.67464 6.67562 3.3627 6.50336 2.88966 6.50336C2.41662 6.50336 2.10469 6.67562 1.95387 7.02014C1.80304 7.3584 1.72763 7.84386 1.72763 8.47653C1.72763 8.90248 1.75505 9.2564 1.8099 9.53828C1.86474 9.81389 1.97443 10.0394 2.13897 10.2148C2.31036 10.3839 2.56059 10.4685 2.88966 10.4685C3.21874 10.4685 3.46554 10.3839 3.63008 10.2148C3.80147 10.0394 3.91459 9.81389 3.96943 9.53828C4.02428 9.2564 4.0517 8.90248 4.0517 8.47653Z" fill="currentColor"></path>
</svg>